# xmcd CD database file
#
# Track frame offsets:
#	150
#	23832
#	44342
#
# Disc length: 766 seconds
#
# Revision: 0
# Processed by: cddbd v1.5PL3 Copyright (c) Steve Scherf et al.
# Submitted via: CDex 1.51
#
DISCID=1c02fc03
DTITLE=矢野真紀 - 魔法
DYEAR=2001
DGENRE=JPop
TTITLE0=魔法
TTITLE1=オネスティ
TTITLE2=海辺の避暑地に
EXTD=YEAR: 2001
EXTT0=
EXTT1=
EXTT2=
PLAYORDER=
